Coordinates
version=1
nRows=17
nColumns=24
inDegrees=yes

Units are S.I. units (second, meters, Newtons, ...)
Angles are in degrees.

endheader
time	pelvis_tilt	pelvis_list	pelvis_rotation	pelvis_tx	pelvis_ty	pelvis_tz	hip_flexion_r	hip_adduction_r	hip_rotation_r	knee_angle_r	ankle_angle_r	subtalar_angle_r	mtp_angle_r	hip_flexion_l	hip_adduction_l	hip_rotation_l	knee_angle_l	ankle_angle_l	subtalar_angle_l	mtp_angle_l	lumbar_extension	lumbar_bending	lumbar_rotation
      2.18000000	     25.69154250	     -1.70841603	      4.43628463	      0.46053875	      0.84952407	     -0.00101389	    -35.31950169	      3.19721529	    -17.58385512	    -39.53001228	     18.74484838	     15.41908918	     59.86580044	     -7.51549370	     -0.34478406	    -10.93861216	    -17.76009443	     13.47136114	      6.65247031	     48.15704519	    -40.24967589	      3.60336411	     -8.78139794
      2.18500000	     25.57453139	     -1.40053798	      4.35449567	      0.46657826	      0.84974045	     -0.00157525	    -34.41149179	      2.47345721	    -17.94142684	    -41.90971965	     17.47709945	     14.72526717	     60.04324987	     -7.67257748	      0.02451548	    -10.74920452	    -18.22463321	     13.64265892	      6.51069325	     48.09922678	    -40.09887492	      3.26503646	     -8.88220508
      2.19000000	     25.44430398	     -1.08228494	      4.32312408	      0.47254867	      0.84994742	     -0.00227005	    -33.48617891	      1.76423809	    -18.28883327	    -44.19702438	     16.13379303	     13.93175700	     60.57450238	     -7.85993715	      0.44038012	    -10.36595843	    -18.56143174	     13.91370157	      6.02208926	     47.91288061	    -39.94227979	      2.95475324	     -9.05939131
      2.19500000	     25.35791408	     -0.72311956	      4.25251969	      0.47859528	      0.85025422	     -0.00286147	    -32.62111887	      0.99636446	    -18.62916992	    -46.39818537	     14.89784229	     13.08818937	     60.77305251	     -8.16062652	      0.88116179	    -10.15074481	    -18.77837955	     14.06034385	      5.96884218	     47.81572353	    -39.82228733	      2.57747939	     -9.19017867
      2.20000000	     25.22941999	     -0.42442571	      4.23720843	      0.48453220	      0.85052239	     -0.00355045	    -31.69546581	      0.33100930	    -18.89070881	    -48.48265688	     13.63961792	     12.06898472	     61.18463675	     -8.40162778	      1.27351385	     -9.81781997	    -18.99750102	     14.35347299	      5.59089796	     47.51534092	    -39.66627397	      2.29479050	     -9.35830351
      2.20500000	     25.12682069	     -0.10694241	      4.17258864	      0.49050068	      0.85083976	     -0.00413903	    -30.80062264	     -0.35883855	    -19.07783454	    -50.48133374	     12.68094957	     10.96801121	     61.13759629	     -8.73815213	      1.68113613	     -9.59706493	    -19.07816312	     14.66629540	      5.54071342	     47.36314196	    -39.53590319	      1.96388032	     -9.48309759
      2.21000000	     25.02276461	      0.16775536	      4.15472975	      0.49637287	      0.85117240	     -0.00475981	    -29.89919667	     -0.96297018	    -19.23834287	    -52.35546508	     11.81260993	      9.79192545	     60.80379373	     -9.04670492	      2.03046510	     -9.37046882	    -19.19977449	     14.96794484	      5.43318879	     47.09578571	    -39.41173149	      1.69873411	     -9.61925204
      2.21500000	     24.91086985	      0.43144968	      4.13720535	      0.50223686	      0.85150630	     -0.00535106	    -28.99284875	     -1.53308586	    -19.34550534	    -54.13657517	     11.33595518	      8.72824664	     58.95969527	     -9.37917543	      2.36418075	     -9.15723554	    -19.25195950	     15.38345014	      5.53397621	     46.07556078	    -39.27676194	      1.44097933	     -9.75673487
      2.22000000	     24.81730048	      0.62489740	      4.12588218	      0.50802294	      0.85191076	     -0.00589382	    -28.09601719	     -1.99428667	    -19.37489009	    -55.75303697	     10.85792733	      7.40905397	     58.32272769	     -9.71626941	      2.60569851	     -9.02515104	    -19.31679042	     15.73684342	      5.57299227	     45.90247253	    -39.16663843	      1.25148001	     -9.84308417
      2.22500000	     24.72212385	      0.80729089	      4.14436261	      0.51378761	      0.85232166	     -0.00644398	    -27.20879533	     -2.40508668	    -19.39223368	    -57.26322544	     10.80540452	      6.31741815	     55.85585744	    -10.07880552	      2.82322766	     -8.86928294	    -19.31138140	     16.14433313	      5.86433971	     45.24342837	    -39.05444168	      1.08716719	     -9.97127248
      2.23000000	     24.64555412	      0.93927342	      4.15299908	      0.51946560	      0.85277328	     -0.00694180	    -26.33160014	     -2.73871069	    -19.34646242	    -58.63379427	     10.92376535	      5.13677709	     54.08730882	    -10.44975938	      2.97966378	     -8.77888618	    -19.31747325	     16.55404296	      6.07444453	     44.73281863	    -38.96977491	      0.96394616	    -10.05499888
      2.23500000	     24.57541527	      1.02073653	      4.17467592	      0.52508628	      0.85325779	     -0.00742344	    -25.45872468	     -2.98729061	    -19.26417819	    -59.86147723	     11.19259116	      3.98656711	     52.31693012	    -10.82230748	      3.06875848	     -8.72765453	    -19.31893256	     16.96006531	      6.35720635	     44.27569839	    -38.89412897	      0.89638555	    -10.11770602
      2.24000000	     24.50238491	      1.06212081	      4.21070660	      0.53064046	      0.85376430	     -0.00788658	    -24.57889247	     -3.16499276	    -19.16083774	    -60.95567107	     11.60806278	      2.89712751	     50.51361752	    -11.18483327	      3.10479908	     -8.69482582	    -19.31683638	     17.35843596	      6.67277148	     43.79763732	    -38.82023573	      0.87293744	    -10.17883392
      2.24500000	     24.42034260	      1.04768275	      4.25120931	      0.53608639	      0.85426047	     -0.00834555	    -23.66968462	     -3.26486003	    -19.02627523	    -61.92057670	     12.01108158	      1.73879925	     49.74393851	    -11.51088106	      3.08294764	     -8.67378786	    -19.35053444	     17.79158713	      6.80816206	     43.63890806	    -38.74483576	      0.90637139	    -10.20241460
      2.25000000	     24.36286984	      1.04843717	      4.26388972	      0.54154797	      0.85479769	     -0.00872541	    -22.79843834	     -3.37511772	    -18.87551177	    -62.78985272	     12.82368332	      1.03400898	     46.84342391	    -11.89759508	      3.06475584	     -8.74014868	    -19.31399541	     18.20849949	      7.30650356	     42.81368262	    -38.69521699	      0.90781040	    -10.22843751
      2.25500000	     24.30927804	      0.97779105	      4.34603257	      0.54691232	      0.85534964	     -0.00914011	    -21.94055875	     -3.35309147	    -18.75889107	    -63.46637280	     13.55186892	      0.12880615	     45.43680010	    -12.24764667	      2.94651913	     -8.76102735	    -19.33911695	     18.63420051	      7.76794834	     42.29374208	    -38.65508823	      1.01369238	    -10.28670095
      2.26000000	     24.23984350	      0.88393997	      4.40756279	      0.55219963	      0.85586892	     -0.00952370	    -21.05138218	     -3.30454464	    -18.61082003	    -64.04057006	     14.38806523	     -0.61733997	     43.90191603	    -12.57032840	      2.81266609	     -8.80121248	    -19.36892209	     19.07139648	      8.13373850	     41.74092446	    -38.60658776	      1.13189123	    -10.31328227
